<?xml version="1.0" encoding="UTF-8" standalone="no"?>
<!-- Created with Inkscape (http://www.inkscape.org/) -->

<svg
   width="192.48273mm"
   height="20.741264mm"
   viewBox="0 0 192.48273 20.741264"
   version="1.1"
   id="svg639"
   xmlns:inkscape="http://www.inkscape.org/namespaces/inkscape"
   xmlns:sodipodi="http://sodipodi.sourceforge.net/DTD/sodipodi-0.dtd"
   xmlns="http://www.w3.org/2000/svg"
   xmlns:svg="http://www.w3.org/2000/svg">
  <sodipodi:namedview
     id="namedview641"
     pagecolor="#ffffff"
     bordercolor="#666666"
     borderopacity="1.0"
     inkscape:showpageshadow="2"
     inkscape:pageopacity="0.0"
     inkscape:pagecheckerboard="0"
     inkscape:deskcolor="#d1d1d1"
     inkscape:document-units="mm"
     showgrid="false"
     inkscape:zoom="0.93806818"
     inkscape:cx="272.36826"
     inkscape:cy="564.4579"
     inkscape:window-width="1920"
     inkscape:window-height="995"
     inkscape:window-x="0"
     inkscape:window-y="0"
     inkscape:window-maximized="1"
     inkscape:current-layer="layer1" />
  <defs
     id="defs636" />
  <g
     inkscape:label="Layer 1"
     inkscape:groupmode="layer"
     id="layer1"
     transform="translate(-10.589008,-110.59136)">
    <path
       style="fill:none;stroke:#ff00ff;stroke-width:4.99998;stroke-linecap:round;stroke-linejoin:miter;stroke-dasharray:none;stroke-opacity:1"
       d="m 15.945813,113.09135 c 0,2.11085 0.218885,0.63885 -1.626288,3.90015 -0.391163,0.69138 -0.885929,1.3803 -1.115535,2.07606 -0.143,0.43331 0,0.86949 0,1.30424 0,0.26273 0,0.52547 0,0.78821 0,0.28004 0,0.56008 0,0.84012 0,0.28038 -0.109927,0.69386 0.28713,0.97251 0.182326,0.12796 0.577239,0.23105 0.850613,0.34878 0.105152,0.0453 0.157258,0.0982 0.284289,0.13995 0.159418,0.0524 0.315113,0.11586 0.564102,0.13885 1.048182,0.0968 2.66756,0.0694 3.718174,0.0694 4.149029,0 5.253879,0.0781 9.838313,-0.45774 3.930642,-0.45946 9.734711,-1.98834 12.171828,-2.60369 2.684238,-0.67774 9.204005,-2.38822 11.827404,-3.27463 0.79683,-0.26924 1.24964,-0.59204 1.982674,-0.87205 0.638908,-0.24405 1.554009,-0.44246 2.124011,-0.69664 3.470479,-1.54759 -3.065187,0.6355 2.17846,-1.06906 0.487215,-0.15838 1.002086,-0.31169 1.533533,-0.46121 0.322781,-0.0908 0.868641,-0.26638 1.124675,-0.20827 0.130548,0.0296 0.205505,0.0743 0.238239,0.11728 0.289454,0.37985 0.453866,0.76494 0.724135,1.14564 0.433885,0.61119 0.86395,1.22283 1.3881,1.82972 0.635997,0.73638 1.595228,1.4562 2.091457,2.19907 0.377298,1.38245 0.308015,1.71564 1.294675,3.06546 1.394447,1.90771 0.934553,1.1644 3.183094,2.82068 0.587957,0.43309 0.703077,0.93242 2.075256,1.27018 0.282051,0.0694 0.489384,0.16437 0.846156,0.20828 0.252273,0.031 0.565253,0.006 0.846154,0 0.951896,-0.0212 1.968457,0.01 2.847781,-0.0824 6.184816,-0.6486 6.865586,-1.10503 12.261723,-2.14573 8.321683,-1.60492 9.776883,-1.57155 18.455324,-3.53223 0.65472,-0.14792 5.3687,-1.68568 6.22885,-1.93979 0.81503,-0.24079 2.00326,-0.46702 2.85924,-0.70379 1.48476,-0.41069 1.00802,-0.44011 3.38124,-0.74535 0.49608,-0.0638 4.9239,-0.55068 5.68878,-0.18369 1.83821,0.88198 2.93468,2.49109 3.51484,3.41631 0.79074,1.26108 1.14751,2.53903 2.12681,3.79206 0.6343,0.8116 1.65767,1.6031 2.70352,2.38846 0.59805,0.4491 1.4515,0.87519 2.21943,1.30835 0.27304,0.15401 0.56924,0.30587 0.90238,0.45254 0.0655,0.0288 0.18948,0.0934 0.28467,0.0701 0.29823,-0.073 0.31969,-0.1935 0.5641,-0.27771 6.37257,-2.19565 2.06962,-0.47654 5.98891,-2.14614 1.98088,-0.84386 4.01286,-1.68049 5.95874,-2.52926 0.0614,-0.0268 12.33298,-5.52011 12.36347,-5.53306 2.12551,-0.90281 4.33423,-1.79407 6.62407,-2.67219 0.24464,-0.0938 0.64049,-0.15765 0.96074,-0.23648 0.094,-0.0231 0.18803,-0.0926 0.28205,-0.0694 0.13296,0.0327 -0.0684,0.0957 0,0.13885 0.66623,0.41982 1.32814,0.84233 2.18848,1.2402 0.15415,0.0713 4.57619,1.77488 5.24687,1.9897 0.43518,0.13939 1.01,0.24861 1.51499,0.37291 0.19024,0.0468 0.33036,0.11073 0.57072,0.14048 0.16798,0.0208 0.37606,0 0.5641,0 0.37607,0 0.75214,0 1.1282,0 0.96036,0 1.92072,0 2.88108,0 0.68794,0 1.38848,-0.0323 2.06381,0 1.3258,0.0634 2.56623,0.21103 3.88364,0.28422 1.54503,0.0859 3.1417,0.10672 4.68725,0.19199 1.28161,0.0707 2.52222,0.18071 3.77842,0.27509 1.2244,0.092 0.50508,0.0769 1.47106,0.0769"
       id="path881" />
  </g>
</svg>
