<?xml version="1.0" encoding="UTF-8" standalone="no"?>
<!-- Uploaded to: SVG Repo, www.svgrepo.com, Generator: SVG Repo Mixer Tools -->

<svg
   width="800px"
   height="800px"
   viewBox="0 0 24 24"
   fill="none"
   version="1.1"
   id="svg397"
   sodipodi:docname="circle.svg"
   inkscape:version="1.2.1 (9c6d41e410, 2022-07-14)"
   xmlns:inkscape="http://www.inkscape.org/namespaces/inkscape"
   xmlns:sodipodi="http://sodipodi.sourceforge.net/DTD/sodipodi-0.dtd"
   xmlns="http://www.w3.org/2000/svg"
   xmlns:svg="http://www.w3.org/2000/svg">
  <defs
     id="defs401" />
  <sodipodi:namedview
     id="namedview399"
     pagecolor="#ffffff"
     bordercolor="#666666"
     borderopacity="1.0"
     inkscape:showpageshadow="2"
     inkscape:pageopacity="0.0"
     inkscape:pagecheckerboard="0"
     inkscape:deskcolor="#d1d1d1"
     showgrid="false"
     inkscape:zoom="1"
     inkscape:cx="166.5"
     inkscape:cy="504.5"
     inkscape:window-width="2560"
     inkscape:window-height="1355"
     inkscape:window-x="0"
     inkscape:window-y="0"
     inkscape:window-maximized="1"
     inkscape:current-layer="svg397"
     showguides="true">
    <sodipodi:guide
       position="12.02283,16.908787"
       orientation="1,0"
       id="guide612"
       inkscape:locked="false" />
  </sodipodi:namedview>
  <path
     fill-rule="evenodd"
     clip-rule="evenodd"
     d="M 12.013925,16.05891 C 10.138982,16.059794 7.909221,15.136679 6.747997,13.100751 6.1976594,12.12236 5.7958673,11.045012 5.7958673,9.9659268 c 0,-1.6454355 0.6536489,-3.2234815 1.8171473,-4.386986 1.1635045,-1.1634984 2.7415504,-1.8171473 4.3869864,-1.8171473 1.64546,0 3.223482,0.6536489 4.387004,1.8171473 1.163461,1.1635045 1.817129,2.7415505 1.817129,4.386986 0,1.0790852 -0.432779,2.1574602 -0.983147,3.1358512 -1.401842,2.112029 -3.262265,2.949958 -5.206516,2.957272 -2.95e-4,3.42e-4 -9.6e-5,-1.01e-4 -5.46e-4,-1.4e-4 z"
     fill="#000000"
     id="path395"
     sodipodi:nodetypes="ccscscsccc"
     style="stroke-width:0.999996" />
</svg>
