<?xml version="1.0" encoding="UTF-8" standalone="no"?>
<!-- Uploaded to: SVG Repo, www.svgrepo.com, Generator: SVG Repo Mixer Tools -->

<svg
   width="800px"
   height="800px"
   viewBox="0 0 24 24"
   fill="none"
   version="1.1"
   id="svg397"
   sodipodi:docname="location.svg"
   inkscape:version="1.2.1 (9c6d41e410, 2022-07-14)"
   xmlns:inkscape="http://www.inkscape.org/namespaces/inkscape"
   xmlns:sodipodi="http://sodipodi.sourceforge.net/DTD/sodipodi-0.dtd"
   xmlns="http://www.w3.org/2000/svg"
   xmlns:svg="http://www.w3.org/2000/svg">
  <defs
     id="defs401" />
  <sodipodi:namedview
     id="namedview399"
     pagecolor="#ffffff"
     bordercolor="#666666"
     borderopacity="1.0"
     inkscape:showpageshadow="2"
     inkscape:pageopacity="0.0"
     inkscape:pagecheckerboard="0"
     inkscape:deskcolor="#d1d1d1"
     showgrid="false"
     inkscape:zoom="0.46536465"
     inkscape:cx="-163.31279"
     inkscape:cy="617.7951"
     inkscape:window-width="2560"
     inkscape:window-height="1355"
     inkscape:window-x="0"
     inkscape:window-y="0"
     inkscape:window-maximized="1"
     inkscape:current-layer="svg397" />
  <path
     fill-rule="evenodd"
     clip-rule="evenodd"
     d="M 11.3856,23.789 11.3831,23.7871 11.3769,23.7822 11.355,23.765 C 11.3362,23.7501 11.3091,23.7287 11.2742,23.7008 11.2046,23.6451 11.1039,23.5637 10.9767,23.4587 10.7224,23.2488 10.3615,22.944 9.92939,22.5599 9.06662,21.793 7.91329,20.7041 6.75671,19.419 5.60303,18.1371 4.42693,16.639 3.53467,15.0528 2.64762,13.4758 2,11.7393 2,10 2,7.34784 3.05357,4.8043 4.92893,2.92893 6.8043,1.05357 9.34784,0 12,0 14.6522,0 17.1957,1.05357 19.0711,2.92893 20.9464,4.8043 22,7.34784 22,10 c 0,1.7393 -0.6476,3.4758 -1.5347,5.0528 -0.8922,1.5862 -2.0683,3.0843 -3.222,4.3662 -1.1566,1.2851 -2.3099,2.374 -3.1727,3.1409 -0.4321,0.3841 -0.793,0.6889 -1.0473,0.8988 -0.1272,0.105 -0.2279,0.1864 -0.2975,0.2421 -0.0349,0.0279 -0.062,0.0493 -0.0808,0.0642 l -0.0219,0.0172 -0.0062,0.0049 -0.003,0.0023 c -0.3611,0.2808 -0.8672,0.2805 -1.2283,-4e-4 z"
     fill="#000000"
     id="path395"
     sodipodi:nodetypes="cccccccccscscscccccccccc" />
</svg>
